<svg width="18" height="23" viewBox="0 0 18 23" fill="none" xmlns="http://www.w3.org/2000/svg">
<path d="M8.9987 0.0820312C4.22191 0.0820312 0.332031 3.97191 0.332031 8.7487C0.332031 10.8152 1.60874 13.277 3.08586 15.7057C4.5628 18.1341 6.29179 20.4543 7.35994 21.8312C8.17771 22.8856 9.81863 22.8856 10.6364 21.8312C11.7049 20.4543 13.4345 18.1341 14.9115 15.7057C16.3887 13.277 17.6654 10.8152 17.6654 8.7487C17.6654 3.97191 13.7755 0.0820312 8.9987 0.0820312ZM8.9987 1.70703C12.8972 1.70703 16.0404 4.85015 16.0404 8.7487C16.0404 10.053 14.9456 12.5216 13.5225 14.8615C12.0993 17.2014 10.3993 19.4874 9.35311 20.8357C9.16012 21.0845 8.83728 21.0845 8.64429 20.8357C7.59829 19.4874 5.89804 17.2014 4.47494 14.8615C3.05183 12.5216 1.95703 10.053 1.95703 8.7487C1.95703 4.85015 5.10015 1.70703 8.9987 1.70703ZM8.9987 4.95703C8.42406 4.95703 7.87296 5.1853 7.46663 5.59163C7.0603 5.99796 6.83203 6.54906 6.83203 7.1237C6.83203 7.69833 7.0603 8.24943 7.46663 8.65576C7.87296 9.06209 8.42406 9.29036 8.9987 9.29036C9.57333 9.29036 10.1244 9.06209 10.5308 8.65576C10.9371 8.24943 11.1654 7.69833 11.1654 7.1237C11.1654 6.54906 10.9371 5.99796 10.5308 5.59163C10.1244 5.1853 9.57333 4.95703 8.9987 4.95703ZM5.99097 10.3737C5.55763 10.3737 5.20703 10.7243 5.20703 11.1576V11.8643C5.20703 13.0685 6.74374 14.1654 8.9987 14.1654C11.2537 14.1654 12.7904 13.0685 12.7904 11.8643V11.1576C12.7904 10.7243 12.4398 10.3737 12.0064 10.3737H5.99097Z" fill="#BE5713"/>
</svg>
